# xmcd
#
# Track frame offsets: 
#        150
#        11291
#        22228
#        31123
#        40559
#        50379
#        59884
#        71475
#        83231
#        93200
#        105285
#        121447
#        131005
#        141452
#        159166
#        170414
#        184503
#        202085
#        211304
#        224339
#        234704
#        248683
#        261528
#        270558
#        282229
#
# Disc length: 3947 seconds
#
# Revision: 0
# Processed by: cddbd v1.5.2PL0 Copyright (c) Steve Scherf et al.
# Submitted via: ExactAudioCopy v0.95b3
#
DISCID=690f6919
DTITLE=The Byrds  - There Is A Season [CD1]
DYEAR=1900
DGENRE=
TTITLE0=The Only Girl I Adore
TTITLE1=Please Let Me Love You
TTITLE2=Don't Be Long
TTITLE3=The Airport Song
TTITLE4=You Movin'
TTITLE5=You Showed Me
TTITLE6=Mr. Tambourine Man
TTITLE7=I'll Feel A Whole Lot Better
TTITLE8=You Won't Have To Cry
TTITLE9=Here Without You
TTITLE10=The Bells Of Rhymney
TTITLE11=All I Really Want To Do (Single Version)
TTITLE12=I Knew I'd Want You
TTITLE13=Chimes Of Freedom
TTITLE14=She Has A Way
TTITLE15=It's All Over Now, Baby Blue (Version One)
TTITLE16=Turn! Turn! Turn! (To Everything There Is A Season)
TTITLE17=It Won't Be Wrong
TTITLE18=Set You Free This Time
TTITLE19=The World Turns All Around Her
TTITLE20=The Day Walk (Never Before)
TTITLE21=If You're Gone
TTITLE22=The Times They Are A-Changin' (Mono)
TTITLE23=She Don't Care About Time (Single Version) (Mono)
TTITLE24=Stranger In A Strange Land (Instrumental)
EXTD=
EXTT0=
EXTT1=
EXTT2=
EXTT3=
EXTT4=
EXTT5=
EXTT6=
EXTT7=
EXTT8=
EXTT9=
EXTT10=
EXTT11=
EXTT12=
EXTT13=
EXTT14=
EXTT15=
EXTT16=
EXTT17=
EXTT18=
EXTT19=
EXTT20=
EXTT21=
EXTT22=
EXTT23=
EXTT24=
PLAYORDER=
